<svg width="54" height="29" viewBox="0 0 54 29" fill="none" xmlns="http://www.w3.org/2000/svg">
<path d="M0.680404 2.95218L0.685616 2.96113C0.709723 3.00249 0.735704 3.03273 0.741115 3.03904L0.741698 3.03971C0.751498 3.05119 0.760681 3.06108 0.76717 3.06794C0.780497 3.08202 0.795342 3.09684 0.809499 3.11071C0.838498 3.13911 0.877228 3.17582 0.923523 3.21903C1.01677 3.30606 1.14966 3.42779 1.31677 3.57944C1.65147 3.88315 2.12888 4.31173 2.71323 4.8331C3.88219 5.87607 5.48197 7.2929 7.23025 8.8302C8.97734 10.3665 10.5651 11.7692 11.7158 12.7909C12.2913 13.3019 12.7569 13.7171 13.0784 14.0058C13.1126 14.0365 13.1451 14.0657 13.1758 14.0934C13.1451 14.1211 13.1126 14.1503 13.0784 14.181C12.7569 14.4698 12.2913 14.8849 11.7158 15.3959C10.5651 16.4176 8.97734 17.8204 7.23025 19.3566C5.48197 20.8939 3.88219 22.3107 2.71323 23.3537C2.12888 23.8751 1.65147 24.3037 1.31677 24.6074C1.14966 24.759 1.01677 24.8807 0.923523 24.9678C0.877228 25.011 0.838499 25.0477 0.8095 25.0761C0.795342 25.09 0.780497 25.1048 0.767171 25.1189C0.760682 25.1257 0.751499 25.1356 0.7417 25.1471C0.741546 25.1473 0.741353 25.1475 0.741122 25.1478C0.735725 25.154 0.709734 25.1843 0.685618 25.2257L0.68055 25.2344L0.675837 25.2433C0.574036 25.4353 0.526241 25.6724 0.509485 25.871C0.492839 26.0684 0.499678 26.3122 0.571301 26.5195C0.701881 26.8976 1.04531 27.2681 1.40363 27.4482L1.41086 27.4518L1.41089 27.4517C1.63372 27.5593 1.90009 27.5967 2.13087 27.5967C2.3641 27.5967 2.62828 27.5585 2.85331 27.4579L2.85566 27.4569L2.85566 27.4569C2.90942 27.4325 2.95418 27.3998 2.96214 27.394C2.96258 27.3936 2.96291 27.3934 2.96312 27.3932C2.98135 27.3801 3.00086 27.3652 3.0198 27.3504C3.05829 27.3203 3.10776 27.2801 3.16583 27.2322C3.28264 27.1357 3.44431 26.9993 3.64321 26.8297C4.04153 26.49 4.59551 26.0117 5.25226 25.4415C6.56608 24.3006 8.29471 22.7883 10.0197 21.2722C11.7447 19.7561 13.4667 18.2356 14.7674 17.0782C15.4176 16.4996 15.9634 16.011 16.3518 15.6588C16.5458 15.483 16.7022 15.3397 16.8132 15.2357C16.8684 15.184 16.9148 15.1397 16.9498 15.105C16.9671 15.0879 16.9846 15.0702 17.0001 15.0535L17.0011 15.0525C17.008 15.0452 17.0426 15.0085 17.0725 14.9617C17.2421 14.6957 17.2562 14.4346 17.2562 14.0832V14.0787C17.2562 13.8959 17.2562 13.7183 17.2185 13.5624C17.1718 13.3696 17.0772 13.2391 16.9994 13.1346L16.9979 13.1325C16.9636 13.087 16.9139 13.0386 16.8897 13.015L16.8872 13.0125C16.8507 12.9769 16.8029 12.9318 16.746 12.8788C16.6317 12.7724 16.4727 12.6273 16.2765 12.45C15.8838 12.095 15.3363 11.6058 14.6865 11.0284C13.3864 9.87328 11.6731 8.36196 9.95965 6.8573C8.24621 5.35264 6.53189 3.854 5.22982 2.72427C4.57895 2.15954 4.0302 1.68622 3.63579 1.35021C3.43886 1.18243 3.2788 1.04751 3.16316 0.952143C3.1057 0.904751 3.05666 0.865025 3.01847 0.835224C2.99969 0.82058 2.98021 0.805721 2.96193 0.792629L2.96108 0.792009C2.95367 0.786596 2.90741 0.752796 2.8516 0.728111M0.680404 2.95218L2.64935 1.18538M0.680404 2.95218L0.675567 2.94304C0.567136 2.73793 0.516041 2.49532 0.50331 2.27826C0.490785 2.06471 0.511949 1.81705 0.600435 1.59976M0.680404 2.95218L0.600435 1.59976M2.8516 0.728111L2.64935 1.18538M2.8516 0.728111C2.85181 0.728203 2.85202 0.728294 2.85222 0.728386L2.64935 1.18538M2.8516 0.728111C2.6329 0.631184 2.36214 0.596848 2.13852 0.594599C1.92447 0.592449 1.64427 0.618303 1.42601 0.72781M2.64935 1.18538C2.38616 1.06854 1.87031 1.06346 1.64923 1.17522M1.42601 0.72781C1.42679 0.727421 1.42758 0.727034 1.42837 0.726646L1.64923 1.17522M1.42601 0.72781C1.07355 0.902113 0.741952 1.23623 0.600435 1.59976M1.42601 0.72781C1.42523 0.728203 1.42444 0.728598 1.42366 0.728992L1.64923 1.17522M1.64923 1.17522L0.600435 1.59976" fill="#469BFF" stroke="#469BFF"/>
<path d="M18.7937 2.95218L18.7989 2.96113C18.823 3.00249 18.849 3.03273 18.8544 3.03904L18.855 3.03971C18.8648 3.05119 18.874 3.06108 18.8805 3.06794C18.8938 3.08202 18.9086 3.09684 18.9228 3.11071C18.9518 3.13911 18.9905 3.17582 19.0368 3.21903C19.1301 3.30606 19.2629 3.42779 19.4301 3.57944C19.7648 3.88315 20.2422 4.31173 20.8265 4.8331C21.9955 5.87607 23.5953 7.2929 25.3435 8.8302C27.0906 10.3665 28.6783 11.7692 29.8291 12.7909C30.4045 13.3019 30.8702 13.7171 31.1917 14.0058C31.2259 14.0365 31.2584 14.0657 31.2891 14.0934C31.2584 14.1211 31.2259 14.1503 31.1917 14.181C30.8702 14.4698 30.4045 14.8849 29.8291 15.3959C28.6783 16.4176 27.0906 17.8204 25.3435 19.3566C23.5953 20.8939 21.9955 22.3107 20.8265 23.3537C20.2422 23.8751 19.7648 24.3037 19.4301 24.6074C19.2629 24.759 19.1301 24.8807 19.0368 24.9678C18.9905 25.011 18.9518 25.0477 18.9228 25.0761C18.9086 25.09 18.8938 25.1048 18.8805 25.1189C18.874 25.1257 18.8648 25.1356 18.855 25.1471C18.8548 25.1473 18.8546 25.1475 18.8544 25.1478C18.849 25.154 18.823 25.1843 18.7989 25.2257L18.7938 25.2344L18.7891 25.2433C18.6873 25.4353 18.6395 25.6724 18.6228 25.871C18.6061 26.0684 18.613 26.3122 18.6846 26.5195C18.8152 26.8976 19.1586 27.2681 19.5169 27.4482L19.5241 27.4518L19.5242 27.4517C19.747 27.5593 20.0134 27.5967 20.2441 27.5967C20.4774 27.5967 20.7416 27.5585 20.9666 27.4579L20.9689 27.4569L20.9689 27.4569C21.0227 27.4325 21.0675 27.3998 21.0754 27.394C21.0759 27.3936 21.0762 27.3934 21.0764 27.3932C21.0946 27.3801 21.1141 27.3652 21.1331 27.3504C21.1716 27.3203 21.221 27.2801 21.2791 27.2322C21.3959 27.1357 21.5576 26.9993 21.7565 26.8297C22.1548 26.49 22.7088 26.0117 23.3655 25.4415C24.6794 24.3006 26.408 22.7883 28.133 21.2722C29.8579 19.7561 31.58 18.2356 32.8807 17.0782C33.5309 16.4996 34.0767 16.011 34.4651 15.6588C34.6591 15.483 34.8155 15.3397 34.9265 15.2357C34.9816 15.184 35.028 15.1397 35.0631 15.105C35.0804 15.0879 35.0978 15.0702 35.1134 15.0535L35.1143 15.0525C35.1213 15.0452 35.1558 15.0085 35.1858 14.9617C35.3554 14.6957 35.3695 14.4346 35.3695 14.0832V14.0787C35.3695 13.8959 35.3695 13.7183 35.3317 13.5624C35.2851 13.3696 35.1905 13.2391 35.1127 13.1346L35.1112 13.1325C35.0769 13.087 35.0272 13.0386 35.003 13.015L35.0004 13.0125C34.964 12.9769 34.9162 12.9318 34.8593 12.8788C34.7449 12.7724 34.586 12.6273 34.3898 12.45C33.997 12.095 33.4496 11.6058 32.7997 11.0284C31.4997 9.87328 29.7864 8.36196 28.0729 6.8573C26.3595 5.35264 24.6452 3.854 23.3431 2.72427C22.6922 2.15954 22.1435 1.68622 21.7491 1.35021C21.5521 1.18243 21.3921 1.04751 21.2764 0.952143C21.219 0.904751 21.1699 0.865025 21.1317 0.835224C21.113 0.82058 21.0935 0.805721 21.0752 0.792629L21.0744 0.792009C21.067 0.786596 21.0207 0.752796 20.9649 0.728111M18.7937 2.95218L20.7626 1.18538M18.7937 2.95218L18.7888 2.94304C18.6804 2.73793 18.6293 2.49532 18.6166 2.27826C18.6041 2.06471 18.6252 1.81705 18.7137 1.59976M18.7937 2.95218L18.7137 1.59976M20.9649 0.728111L20.7626 1.18538M20.9649 0.728111C20.9651 0.728203 20.9653 0.728294 20.9655 0.728386L20.7626 1.18538M20.9649 0.728111C20.7462 0.631184 20.4754 0.596848 20.2518 0.594599C20.0378 0.592449 19.7575 0.618303 19.5393 0.72781M20.7626 1.18538C20.4994 1.06854 19.9836 1.06346 19.7625 1.17522M19.5393 0.72781C19.5401 0.727421 19.5409 0.727034 19.5416 0.726646L19.7625 1.17522M19.5393 0.72781C19.1868 0.902113 18.8552 1.23623 18.7137 1.59976M19.5393 0.72781C19.5385 0.728203 19.5377 0.728598 19.5369 0.728992L19.7625 1.17522M19.7625 1.17522L18.7137 1.59976" fill="#469BFF" stroke="#469BFF"/>
<path d="M36.9226 2.95218L36.9278 2.96113C36.9519 3.00249 36.9779 3.03273 36.9833 3.03904L36.9839 3.03971C36.9937 3.05119 37.0029 3.06108 37.0094 3.06794C37.0227 3.08202 37.0375 3.09684 37.0517 3.11071C37.0807 3.13911 37.1194 3.17582 37.1657 3.21903C37.259 3.30606 37.3918 3.42779 37.559 3.57944C37.8937 3.88315 38.3711 4.31173 38.9554 4.8331C40.1244 5.87607 41.7242 7.2929 43.4724 8.8302C45.2195 10.3665 46.8073 11.7692 47.958 12.7909C48.5334 13.3019 48.9991 13.7171 49.3206 14.0058C49.3548 14.0365 49.3873 14.0657 49.418 14.0934C49.3873 14.1211 49.3548 14.1503 49.3206 14.181C48.9991 14.4698 48.5334 14.8849 47.958 15.3959C46.8073 16.4176 45.2195 17.8204 43.4724 19.3566C41.7242 20.8939 40.1244 22.3107 38.9554 23.3537C38.3711 23.8751 37.8937 24.3037 37.559 24.6074C37.3918 24.759 37.259 24.8807 37.1657 24.9678C37.1194 25.011 37.0807 25.0477 37.0517 25.0761C37.0375 25.09 37.0227 25.1048 37.0094 25.1189C37.0029 25.1257 36.9937 25.1356 36.9839 25.1471C36.9837 25.1473 36.9835 25.1475 36.9833 25.1478C36.9779 25.154 36.9519 25.1843 36.9278 25.2257L36.9227 25.2344L36.918 25.2433C36.8162 25.4353 36.7684 25.6724 36.7517 25.871C36.735 26.0684 36.7419 26.3122 36.8135 26.5195C36.9441 26.8976 37.2875 27.2681 37.6458 27.4482L37.653 27.4518L37.6531 27.4517C37.8759 27.5593 38.1423 27.5967 38.3731 27.5967C38.6063 27.5967 38.8705 27.5585 39.0955 27.4579L39.0979 27.4569L39.0978 27.4569C39.1516 27.4325 39.1964 27.3998 39.2043 27.394C39.2048 27.3936 39.2051 27.3934 39.2053 27.3932C39.2235 27.3801 39.2431 27.3652 39.262 27.3504C39.3005 27.3203 39.35 27.2801 39.408 27.2322C39.5248 27.1357 39.6865 26.9993 39.8854 26.8297C40.2837 26.49 40.8377 26.0117 41.4944 25.4415C42.8083 24.3006 44.5369 22.7883 46.2619 21.2722C47.9868 19.7561 49.7089 18.2356 51.0096 17.0782C51.6598 16.4996 52.2056 16.011 52.594 15.6588C52.788 15.483 52.9444 15.3397 53.0554 15.2357C53.1105 15.184 53.1569 15.1397 53.192 15.105C53.2093 15.0879 53.2268 15.0702 53.2423 15.0535L53.2432 15.0525C53.2502 15.0452 53.2847 15.0085 53.3147 14.9617C53.4843 14.6957 53.4984 14.4346 53.4984 14.0832V14.0787C53.4984 13.8959 53.4984 13.7183 53.4606 13.5624C53.414 13.3696 53.3194 13.2391 53.2416 13.1346L53.2401 13.1325C53.2058 13.087 53.1561 13.0386 53.1319 13.015L53.1293 13.0125C53.0929 12.9769 53.0451 12.9318 52.9882 12.8788C52.8739 12.7724 52.7149 12.6273 52.5187 12.45C52.1259 12.095 51.5785 11.6058 50.9286 11.0284C49.6286 9.87328 47.9153 8.36196 46.2018 6.8573C44.4884 5.35264 42.7741 3.854 41.472 2.72427C40.8211 2.15954 40.2724 1.68622 39.878 1.35021C39.681 1.18243 39.521 1.04751 39.4053 0.952143C39.3479 0.904751 39.2989 0.865025 39.2607 0.835224C39.2419 0.82058 39.2224 0.805721 39.2041 0.792629L39.2033 0.792009C39.1959 0.786596 39.1496 0.752796 39.0938 0.728111M36.9226 2.95218L38.8915 1.18538M36.9226 2.95218L36.9178 2.94304C36.8093 2.73793 36.7582 2.49532 36.7455 2.27826C36.733 2.06471 36.7541 1.81705 36.8426 1.59976M36.9226 2.95218L36.8426 1.59976M39.0938 0.728111L38.8915 1.18538M39.0938 0.728111C39.094 0.728203 39.0942 0.728294 39.0944 0.728386L38.8915 1.18538M39.0938 0.728111C38.8751 0.631184 38.6043 0.596848 38.3807 0.594599C38.1667 0.592449 37.8865 0.618303 37.6682 0.72781M38.8915 1.18538C38.6283 1.06854 38.1125 1.06346 37.8914 1.17522M37.6682 0.72781C37.669 0.727421 37.6698 0.727034 37.6706 0.726646L37.8914 1.17522M37.6682 0.72781C37.3157 0.902113 36.9841 1.23623 36.8426 1.59976M37.6682 0.72781C37.6674 0.728203 37.6666 0.728598 37.6658 0.728992L37.8914 1.17522M37.8914 1.17522L36.8426 1.59976" fill="#469BFF" stroke="#469BFF"/>
</svg>
