<svg width="54" height="29" viewBox="0 0 54 29" fill="none" xmlns="http://www.w3.org/2000/svg">
<path d="M0.680404 3.14799L0.685616 3.15693C0.709723 3.19829 0.735704 3.22853 0.741115 3.23484L0.741698 3.23552C0.751498 3.24699 0.760681 3.25688 0.76717 3.26374C0.780497 3.27782 0.795342 3.29264 0.809499 3.30651C0.838498 3.33491 0.877228 3.37162 0.923523 3.41483C1.01677 3.50186 1.14966 3.62359 1.31677 3.77524C1.65147 4.07895 2.12888 4.50753 2.71323 5.0289C3.88219 6.07187 5.48197 7.4887 7.23025 9.026C8.97734 10.5623 10.5651 11.965 11.7158 12.9867C12.2913 13.4977 12.7569 13.9129 13.0784 14.2016C13.1126 14.2323 13.1451 14.2615 13.1758 14.2892C13.1451 14.3169 13.1126 14.3461 13.0784 14.3768C12.7569 14.6656 12.2913 15.0807 11.7158 15.5917C10.5651 16.6134 8.97734 18.0162 7.23025 19.5524C5.48197 21.0897 3.88219 22.5065 2.71323 23.5495C2.12888 24.0709 1.65147 24.4995 1.31677 24.8032C1.14966 24.9548 1.01677 25.0765 0.923523 25.1636C0.877228 25.2068 0.838499 25.2435 0.8095 25.2719C0.795342 25.2858 0.780497 25.3006 0.767171 25.3147C0.760682 25.3215 0.751499 25.3314 0.7417 25.3429C0.741546 25.3431 0.741353 25.3433 0.741122 25.3436C0.735725 25.3498 0.709734 25.3801 0.685618 25.4215L0.68055 25.4302L0.675837 25.4391C0.574036 25.6311 0.526241 25.8682 0.509485 26.0668C0.492839 26.2642 0.499678 26.508 0.571301 26.7153C0.701881 27.0934 1.04531 27.4639 1.40363 27.644L1.41086 27.6476L1.41089 27.6475C1.63372 27.7551 1.90009 27.7925 2.13087 27.7925C2.3641 27.7925 2.62828 27.7543 2.85331 27.6537L2.85566 27.6527L2.85566 27.6527C2.90942 27.6283 2.95418 27.5956 2.96214 27.5898C2.96258 27.5894 2.96291 27.5892 2.96312 27.589C2.98135 27.5759 3.00086 27.561 3.0198 27.5462C3.05829 27.5161 3.10776 27.4759 3.16583 27.428C3.28264 27.3315 3.44431 27.1951 3.64321 27.0255C4.04153 26.6858 4.59551 26.2075 5.25226 25.6373C6.56608 24.4964 8.29471 22.9841 10.0197 21.468C11.7447 19.9519 13.4667 18.4314 14.7674 17.274C15.4176 16.6954 15.9634 16.2068 16.3518 15.8546C16.5458 15.6788 16.7022 15.5355 16.8132 15.4315C16.8684 15.3798 16.9148 15.3355 16.9498 15.3008C16.9671 15.2837 16.9846 15.266 17.0001 15.2493L17.0011 15.2483C17.008 15.241 17.0426 15.2043 17.0725 15.1575C17.2421 14.8915 17.2562 14.6304 17.2562 14.279V14.2745C17.2562 14.0917 17.2562 13.9141 17.2185 13.7582C17.1718 13.5654 17.0772 13.4349 16.9994 13.3304L16.9979 13.3283C16.9636 13.2828 16.9139 13.2344 16.8897 13.2108L16.8872 13.2083C16.8507 13.1727 16.8029 13.1276 16.746 13.0746C16.6317 12.9682 16.4727 12.8231 16.2765 12.6458C15.8838 12.2908 15.3363 11.8016 14.6865 11.2242C13.3864 10.0691 11.6731 8.55776 9.95965 7.0531C8.24621 5.54844 6.53189 4.0498 5.22982 2.92007C4.57895 2.35534 4.0302 1.88202 3.63579 1.54601C3.43886 1.37823 3.2788 1.24331 3.16316 1.14794C3.1057 1.10055 3.05666 1.06083 3.01847 1.03102C2.99969 1.01638 2.98021 1.00152 2.96193 0.98843L2.96108 0.98781C2.95367 0.982397 2.90741 0.948597 2.8516 0.923912M0.680404 3.14799L2.64935 1.38118M0.680404 3.14799L0.675567 3.13884C0.567136 2.93373 0.516041 2.69112 0.50331 2.47406C0.490785 2.26051 0.511949 2.01285 0.600435 1.79556M0.680404 3.14799L0.600435 1.79556M2.8516 0.923912L2.64935 1.38118M2.8516 0.923912C2.85181 0.924004 2.85202 0.924095 2.85222 0.924187L2.64935 1.38118M2.8516 0.923912C2.6329 0.826984 2.36214 0.792648 2.13852 0.7904C1.92447 0.78825 1.64427 0.814104 1.42601 0.923611M2.64935 1.38118C2.38616 1.26434 1.87031 1.25926 1.64923 1.37102M1.42601 0.923611C1.42679 0.923222 1.42758 0.922834 1.42837 0.922447L1.64923 1.37102M1.42601 0.923611C1.07355 1.09791 0.741952 1.43203 0.600435 1.79556M1.42601 0.923611C1.42523 0.924004 1.42444 0.924398 1.42366 0.924793L1.64923 1.37102M1.64923 1.37102L0.600435 1.79556" fill="#469BFF" stroke="#469BFF"/>
<path d="M18.7937 3.14799L18.7989 3.15693C18.823 3.19829 18.849 3.22853 18.8544 3.23484L18.855 3.23552C18.8648 3.24699 18.874 3.25688 18.8805 3.26374C18.8938 3.27782 18.9086 3.29264 18.9228 3.30651C18.9518 3.33491 18.9905 3.37162 19.0368 3.41483C19.1301 3.50186 19.2629 3.62359 19.4301 3.77524C19.7648 4.07895 20.2422 4.50753 20.8265 5.0289C21.9955 6.07187 23.5953 7.4887 25.3435 9.026C27.0906 10.5623 28.6783 11.965 29.8291 12.9867C30.4045 13.4977 30.8702 13.9129 31.1917 14.2016C31.2259 14.2323 31.2584 14.2615 31.2891 14.2892C31.2584 14.3169 31.2259 14.3461 31.1917 14.3768C30.8702 14.6656 30.4045 15.0807 29.8291 15.5917C28.6783 16.6134 27.0906 18.0162 25.3435 19.5524C23.5953 21.0897 21.9955 22.5065 20.8265 23.5495C20.2422 24.0709 19.7648 24.4995 19.4301 24.8032C19.2629 24.9548 19.1301 25.0765 19.0368 25.1636C18.9905 25.2068 18.9518 25.2435 18.9228 25.2719C18.9086 25.2858 18.8938 25.3006 18.8805 25.3147C18.874 25.3215 18.8648 25.3314 18.855 25.3429C18.8548 25.3431 18.8546 25.3433 18.8544 25.3436C18.849 25.3498 18.823 25.3801 18.7989 25.4215L18.7938 25.4302L18.7891 25.4391C18.6873 25.6311 18.6395 25.8682 18.6228 26.0668C18.6061 26.2642 18.613 26.508 18.6846 26.7153C18.8152 27.0934 19.1586 27.4639 19.5169 27.644L19.5241 27.6476L19.5242 27.6475C19.747 27.7551 20.0134 27.7925 20.2441 27.7925C20.4774 27.7925 20.7416 27.7543 20.9666 27.6537L20.9689 27.6527L20.9689 27.6527C21.0227 27.6283 21.0675 27.5956 21.0754 27.5898C21.0759 27.5894 21.0762 27.5892 21.0764 27.589C21.0946 27.5759 21.1141 27.561 21.1331 27.5462C21.1716 27.5161 21.221 27.4759 21.2791 27.428C21.3959 27.3315 21.5576 27.1951 21.7565 27.0255C22.1548 26.6858 22.7088 26.2075 23.3655 25.6373C24.6794 24.4964 26.408 22.9841 28.133 21.468C29.8579 19.9519 31.58 18.4314 32.8807 17.274C33.5309 16.6954 34.0767 16.2068 34.4651 15.8546C34.6591 15.6788 34.8155 15.5355 34.9265 15.4315C34.9816 15.3798 35.028 15.3355 35.0631 15.3008C35.0804 15.2837 35.0978 15.266 35.1134 15.2493L35.1143 15.2483C35.1213 15.241 35.1558 15.2043 35.1858 15.1575C35.3554 14.8915 35.3695 14.6304 35.3695 14.279V14.2745C35.3695 14.0917 35.3695 13.9141 35.3317 13.7582C35.2851 13.5654 35.1905 13.4349 35.1127 13.3304L35.1112 13.3283C35.0769 13.2828 35.0272 13.2344 35.003 13.2108L35.0004 13.2083C34.964 13.1727 34.9162 13.1276 34.8593 13.0746C34.7449 12.9682 34.586 12.8231 34.3898 12.6458C33.997 12.2908 33.4496 11.8016 32.7997 11.2242C31.4997 10.0691 29.7864 8.55776 28.0729 7.0531C26.3595 5.54844 24.6452 4.0498 23.3431 2.92007C22.6922 2.35534 22.1435 1.88202 21.7491 1.54601C21.5521 1.37823 21.3921 1.24331 21.2764 1.14794C21.219 1.10055 21.1699 1.06083 21.1317 1.03102C21.113 1.01638 21.0935 1.00152 21.0752 0.98843L21.0744 0.98781C21.067 0.982397 21.0207 0.948597 20.9649 0.923912M18.7937 3.14799L20.7626 1.38118M18.7937 3.14799L18.7888 3.13884C18.6804 2.93373 18.6293 2.69112 18.6166 2.47406C18.6041 2.26051 18.6252 2.01285 18.7137 1.79556M18.7937 3.14799L18.7137 1.79556M20.9649 0.923912L20.7626 1.38118M20.9649 0.923912C20.9651 0.924004 20.9653 0.924095 20.9655 0.924187L20.7626 1.38118M20.9649 0.923912C20.7462 0.826984 20.4754 0.792648 20.2518 0.7904C20.0378 0.78825 19.7575 0.814104 19.5393 0.923611M20.7626 1.38118C20.4994 1.26434 19.9836 1.25926 19.7625 1.37102M19.5393 0.923611C19.5401 0.923222 19.5409 0.922834 19.5416 0.922447L19.7625 1.37102M19.5393 0.923611C19.1868 1.09791 18.8552 1.43203 18.7137 1.79556M19.5393 0.923611C19.5385 0.924004 19.5377 0.924398 19.5369 0.924793L19.7625 1.37102M19.7625 1.37102L18.7137 1.79556" fill="#469BFF" stroke="#469BFF"/>
<path d="M36.9226 3.14799L36.9278 3.15693C36.9519 3.19829 36.9779 3.22853 36.9833 3.23484L36.9839 3.23552C36.9937 3.24699 37.0029 3.25688 37.0094 3.26374C37.0227 3.27782 37.0375 3.29264 37.0517 3.30651C37.0807 3.33491 37.1194 3.37162 37.1657 3.41483C37.259 3.50186 37.3918 3.62359 37.559 3.77524C37.8937 4.07895 38.3711 4.50753 38.9554 5.0289C40.1244 6.07187 41.7242 7.4887 43.4724 9.026C45.2195 10.5623 46.8073 11.965 47.958 12.9867C48.5334 13.4977 48.9991 13.9129 49.3206 14.2016C49.3548 14.2323 49.3873 14.2615 49.418 14.2892C49.3873 14.3169 49.3548 14.3461 49.3206 14.3768C48.9991 14.6656 48.5334 15.0807 47.958 15.5917C46.8073 16.6134 45.2195 18.0162 43.4724 19.5524C41.7242 21.0897 40.1244 22.5065 38.9554 23.5495C38.3711 24.0709 37.8937 24.4995 37.559 24.8032C37.3918 24.9548 37.259 25.0765 37.1657 25.1636C37.1194 25.2068 37.0807 25.2435 37.0517 25.2719C37.0375 25.2858 37.0227 25.3006 37.0094 25.3147C37.0029 25.3215 36.9937 25.3314 36.9839 25.3429C36.9837 25.3431 36.9835 25.3433 36.9833 25.3436C36.9779 25.3498 36.9519 25.3801 36.9278 25.4215L36.9227 25.4302L36.918 25.4391C36.8162 25.6311 36.7684 25.8682 36.7517 26.0668C36.735 26.2642 36.7419 26.508 36.8135 26.7153C36.9441 27.0934 37.2875 27.4639 37.6458 27.644L37.653 27.6476L37.6531 27.6475C37.8759 27.7551 38.1423 27.7925 38.3731 27.7925C38.6063 27.7925 38.8705 27.7543 39.0955 27.6537L39.0979 27.6527L39.0978 27.6527C39.1516 27.6283 39.1964 27.5956 39.2043 27.5898C39.2048 27.5894 39.2051 27.5892 39.2053 27.589C39.2235 27.5759 39.2431 27.561 39.262 27.5462C39.3005 27.5161 39.35 27.4759 39.408 27.428C39.5248 27.3315 39.6865 27.1951 39.8854 27.0255C40.2837 26.6858 40.8377 26.2075 41.4944 25.6373C42.8083 24.4964 44.5369 22.9841 46.2619 21.468C47.9868 19.9519 49.7089 18.4314 51.0096 17.274C51.6598 16.6954 52.2056 16.2068 52.594 15.8546C52.788 15.6788 52.9444 15.5355 53.0554 15.4315C53.1105 15.3798 53.1569 15.3355 53.192 15.3008C53.2093 15.2837 53.2268 15.266 53.2423 15.2493L53.2432 15.2483C53.2502 15.241 53.2847 15.2043 53.3147 15.1575C53.4843 14.8915 53.4984 14.6304 53.4984 14.279V14.2745C53.4984 14.0917 53.4984 13.9141 53.4606 13.7582C53.414 13.5654 53.3194 13.4349 53.2416 13.3304L53.2401 13.3283C53.2058 13.2828 53.1561 13.2344 53.1319 13.2108L53.1293 13.2083C53.0929 13.1727 53.0451 13.1276 52.9882 13.0746C52.8739 12.9682 52.7149 12.8231 52.5187 12.6458C52.1259 12.2908 51.5785 11.8016 50.9286 11.2242C49.6286 10.0691 47.9153 8.55776 46.2018 7.0531C44.4884 5.54844 42.7741 4.0498 41.472 2.92007C40.8211 2.35534 40.2724 1.88202 39.878 1.54601C39.681 1.37823 39.521 1.24331 39.4053 1.14794C39.3479 1.10055 39.2989 1.06083 39.2607 1.03102C39.2419 1.01638 39.2224 1.00152 39.2041 0.98843L39.2033 0.98781C39.1959 0.982397 39.1496 0.948597 39.0938 0.923912M36.9226 3.14799L38.8915 1.38118M36.9226 3.14799L36.9178 3.13884C36.8093 2.93373 36.7582 2.69112 36.7455 2.47406C36.733 2.26051 36.7541 2.01285 36.8426 1.79556M36.9226 3.14799L36.8426 1.79556M39.0938 0.923912L38.8915 1.38118M39.0938 0.923912C39.094 0.924004 39.0942 0.924095 39.0944 0.924187L38.8915 1.38118M39.0938 0.923912C38.8751 0.826984 38.6043 0.792648 38.3807 0.7904C38.1667 0.78825 37.8865 0.814104 37.6682 0.923611M38.8915 1.38118C38.6283 1.26434 38.1125 1.25926 37.8914 1.37102M37.6682 0.923611C37.669 0.923222 37.6698 0.922834 37.6706 0.922447L37.8914 1.37102M37.6682 0.923611C37.3157 1.09791 36.9841 1.43203 36.8426 1.79556M37.6682 0.923611C37.6674 0.924004 37.6666 0.924398 37.6658 0.924793L37.8914 1.37102M37.8914 1.37102L36.8426 1.79556" fill="#469BFF" stroke="#469BFF"/>
</svg>
