<svg width="22" height="22" viewBox="0 0 22 22" fill="none" xmlns="http://www.w3.org/2000/svg">
<g clip-path="url(#clip0_1055_20686)">
<rect width="22" height="22" fill="#FB8B56"/>
<path d="M10.218 0.360546C5.95547 3.26523 0.176172 7.28711 0.0945313 7.39883L0 7.53633V14.4414V21.3422L0.0988281 21.5312C0.154688 21.6344 0.283594 21.7762 0.382422 21.8492L0.567187 21.9781L1.65859 21.991L2.75 22.0039L2.75859 16.4051C2.77148 11.0555 2.77578 10.7977 2.85313 10.6473C2.95625 10.4324 3.22266 10.2004 3.42461 10.1445C3.65234 10.0801 18.3477 10.0801 18.5754 10.1445C18.7773 10.2004 19.0438 10.4324 19.1469 10.6473C19.2242 10.7977 19.2285 11.0555 19.2414 16.4008L19.25 21.9996H20.2984C21.3039 21.9996 21.3469 21.9953 21.5316 21.9008C21.6477 21.8406 21.7766 21.7203 21.8582 21.5957L22 21.3895V14.4715C22 7.66953 22 7.54922 21.9141 7.41602C21.8582 7.31719 20.3199 6.23867 16.818 3.81953C14.0594 1.92031 11.6789 0.283203 11.5242 0.180079C11.275 0.0210934 11.2148 -0.000391006 10.9957 -0.000391006C10.7508 -0.000391006 10.7293 0.00820351 10.218 0.360546Z" fill="#FEFEFE"/>
<path d="M8.45625 11.9711C8.3918 12.0055 8.31875 12.0699 8.29297 12.1172C8.26719 12.1687 8.25 12.9207 8.25 14.2227V16.2508L8.37461 16.3754L8.49922 16.5H11H13.5008L13.6254 16.3754L13.75 16.2508V14.2227C13.75 12.9164 13.7328 12.1687 13.707 12.1129C13.6082 11.9281 13.4621 11.9023 12.5469 11.9023H11.6875V12.2117C11.6832 12.65 11.623 12.8863 11.4641 13.0496C11.1977 13.3289 10.8582 13.3375 10.5703 13.0797C10.377 12.9035 10.3125 12.6801 10.3125 12.2031V11.9023H9.44453C8.75703 11.9066 8.54648 11.9195 8.45625 11.9711Z" fill="#FEFEFE"/>
<path d="M5.17344 17.5484L5.02734 17.6945V19.6754C5.02734 21.7937 5.03164 21.8453 5.23789 21.957C5.29375 21.9828 6.1875 22 7.80742 22H10.2953L10.4242 21.8668L10.5488 21.7379L10.5617 19.7742C10.5746 17.6859 10.5703 17.6473 10.3641 17.4883C10.2652 17.4109 10.1879 17.4023 9.36289 17.4023H8.46484V17.802C8.46484 18.3133 8.36602 18.5324 8.07812 18.6828C7.8375 18.8074 7.61836 18.7902 7.41211 18.627C7.17578 18.4508 7.13281 18.3219 7.13281 17.832V17.4023H6.22617H5.31953L5.17344 17.5484Z" fill="#FEFEFE"/>
<path d="M11.6355 17.4883C11.4292 17.6473 11.4249 17.6859 11.4378 19.7742L11.4507 21.7379L11.5753 21.8668L11.7042 22H14.1921C15.812 22 16.7058 21.9828 16.7616 21.957C16.9679 21.8453 16.9722 21.7937 16.9722 19.6754V17.6945L16.8261 17.5484L16.68 17.4023H15.7777H14.8753L14.8581 17.8707C14.8452 18.3734 14.8066 18.4766 14.5616 18.6613C14.2695 18.8762 13.8097 18.743 13.6335 18.3906C13.5519 18.2359 13.5347 18.1285 13.5347 17.802V17.4023H12.6366C11.8116 17.4023 11.7343 17.4109 11.6355 17.4883Z" fill="#FEFEFE"/>
</g>
<defs>
<clipPath id="clip0_1055_20686">
<rect width="22" height="22" fill="white"/>
</clipPath>
</defs>
</svg>
