<svg width="44" height="44" viewBox="0 0 44 44" fill="none" xmlns="http://www.w3.org/2000/svg">
<circle cx="22" cy="22" r="22" fill="#2F5894"/>
<path d="M18.2437 12.032C17.9934 12.1125 17.752 12.269 17.5597 12.4836C17.1842 12.8994 17.2155 11.9918 17.2155 22.3513V31.5752H18.1767H19.1379V29.6303C19.1379 27.4931 19.1379 27.4886 19.4061 27.35C19.6028 27.2472 23.4119 27.2472 23.6086 27.35C23.8768 27.4886 23.8768 27.4931 23.8768 29.6303V31.5752H24.8381H25.7993V22.3513C25.7993 11.9918 25.8306 12.8994 25.455 12.4836C25.3432 12.3584 25.1465 12.2019 25.0214 12.1348L24.7933 12.0141L21.5744 12.0052C19.804 12.0007 18.3063 12.0141 18.2437 12.032ZM21.0156 13.9143V14.3615H20.0767H19.1379V13.9143V13.4672H20.0767H21.0156V13.9143ZM23.8768 13.9143V14.3615H22.938H21.9991V13.9143V13.4672H22.938H23.8768V13.9143ZM21.0156 16.7759V17.223H20.0767H19.1379V16.7759V16.3287H20.0767H21.0156V16.7759ZM23.8768 16.7759V17.223H22.938H21.9991V16.7759V16.3287H22.938H23.8768V16.7759ZM21.0156 19.6374V20.0845H20.0767H19.1379V19.6374V19.1902H20.0767H21.0156V19.6374ZM23.8768 19.6374V20.0845H22.938H21.9991V19.6374V19.1902H22.938H23.8768V19.6374ZM21.0156 22.4989V22.946H20.0767H19.1379V22.4989V22.0517H20.0767H21.0156V22.4989ZM23.8768 22.4989V22.946H22.938H21.9991V22.4989V22.0517H22.938H23.8768V22.4989ZM21.0156 25.3604V25.8075H20.0767H19.1379V25.3604V24.9133H20.0767H21.0156V25.3604ZM23.8768 25.3604V25.8075H22.938H21.9991V25.3604V24.9133H22.938H23.8768V25.3604Z" fill="white"/>
<path d="M12.9211 14.9203C12.5858 15.0276 12.2952 15.287 12.1163 15.6312L11.9599 15.9398L11.9464 23.7552L11.9375 31.5752H14.3517H16.7659V23.2142V14.8533L14.9463 14.8577C13.5067 14.8577 13.0775 14.8712 12.9211 14.9203ZM15.7823 18.2066V18.6537H14.5976H13.4128V18.2066V17.7595H14.5976H15.7823V18.2066ZM15.7823 21.0681V21.5152H14.5976H13.4128V21.0681V20.621H14.5976H15.7823V21.0681ZM15.7823 23.9296V24.3767H14.5976H13.4128V23.9296V23.4825H14.5976H15.7823V23.9296ZM15.7823 26.7911V27.2382H14.5976H13.4128V26.7911V26.344H14.5976H15.7823V26.7911ZM15.7823 29.6526V30.0997H14.5976H13.4128V29.6526V29.2055H14.5976H15.7823V29.6526Z" fill="white"/>
<path d="M26.2461 23.2142V31.5752H28.6603H31.0745L31.0655 23.7642L31.0521 15.9487L30.9359 15.6983C30.7883 15.3898 30.538 15.1305 30.2429 14.9829L30.0238 14.8756L28.1372 14.8622L26.2461 14.8488V23.2142ZM29.5991 18.2066V18.6537H28.4144H27.2297V18.2066V17.7595H28.4144H29.5991V18.2066ZM29.5991 21.0681V21.5152H28.4144H27.2297V21.0681V20.621H28.4144H29.5991V21.0681ZM29.5991 23.9296V24.3767H28.4144H27.2297V23.9296V23.4825H28.4144H29.5991V23.9296ZM29.5991 26.7911V27.2382H28.4144H27.2297V26.7911V26.344H28.4144H29.5991V26.7911ZM29.5991 29.6526V30.0997H28.4144H27.2297V29.6526V29.2055H28.4144H29.5991V29.6526Z" fill="white"/>
<path d="M20.0742 29.8987V31.5752H21.5048H22.9355V29.8987V28.2222H21.5048H20.0742V29.8987Z" fill="white"/>
<path d="M11 32.5141V33.0059H21.5062H32.0124V32.5141V32.0223H21.5062H11V32.5141Z" fill="white"/>
</svg>
