<svg width="44" height="44" viewBox="0 0 44 44" fill="none" xmlns="http://www.w3.org/2000/svg">
<circle cx="22" cy="22" r="22" fill="#2F5894"/>
<path d="M29.7266 10.0611C29.2418 10.19 28.7539 10.5551 28.5207 10.9663C28.4287 11.132 28.4195 11.1412 28.3274 11.1197C27.9531 11.0399 27.6125 11.0491 27.3394 11.1443C27.235 11.178 27.2013 11.178 27.1123 11.1412C26.5937 10.9295 25.9217 11.1627 25.667 11.6414C25.6272 11.7181 25.5781 11.7794 25.5597 11.7794C25.5443 11.7794 25.4891 11.7365 25.44 11.6874C25.1117 11.3437 24.4673 11.2486 23.9978 11.4695C23.7308 11.5923 23.4393 11.8838 23.3381 12.1231C23.2706 12.2919 23.2675 12.295 23.1785 12.2643C23.0711 12.2274 22.8502 12.252 22.7305 12.3134C22.6108 12.3778 22.4636 12.5312 22.4022 12.657C22.3347 12.8012 22.3347 13.0897 22.4022 13.2339C22.4513 13.3352 22.6139 13.5039 22.7336 13.5745C22.7796 13.6021 22.7827 13.6236 22.752 13.7249C22.7336 13.7924 22.7244 13.9519 22.7305 14.0777C22.7428 14.3539 22.8195 14.5349 23.0036 14.7252C23.3902 15.1241 24.0377 15.1394 24.4397 14.762C24.5961 14.6147 24.7496 14.3416 24.7496 14.2097C24.7496 14.0931 24.8017 14.0286 24.9183 14.0072C25.0196 13.9857 25.0411 13.998 25.1976 14.1391C25.6425 14.5472 26.2777 14.6239 26.8116 14.3355L26.9589 14.2557L27.1491 14.3416C27.5173 14.5073 27.8886 14.5533 28.2077 14.4705L28.3673 14.4275L28.4808 14.5902C28.9626 15.2959 29.8494 15.6365 30.6533 15.4309C31.086 15.3205 31.5493 15.0198 31.7979 14.6884C31.8531 14.6147 31.8684 14.6086 31.9789 14.6331C32.1385 14.673 32.5251 14.6699 32.6969 14.6301C33.0467 14.5503 33.4272 14.2833 33.6297 13.9734C33.7893 13.7371 33.8629 13.4978 33.8844 13.1756C33.912 12.7184 33.7924 12.3717 33.4886 12.0403C33.194 11.7181 32.835 11.5432 32.4023 11.5125L32.1507 11.4941L32.1139 11.3683C31.985 10.9356 31.5831 10.4508 31.1719 10.236C30.727 10.0028 30.193 9.93836 29.7266 10.0611Z" fill="white"/>
<path d="M22.2613 19.0909V22.9081L21.9483 23.0922L21.6323 23.2794L21.6138 22.8897C21.6016 22.678 21.5924 22.2116 21.5893 21.8587C21.5862 21.5028 21.577 21.021 21.5648 20.7817L21.5463 20.3521L21.1751 20.5485C20.9695 20.6559 20.6596 20.8216 20.4816 20.9136C20.3036 21.0087 20.0643 21.1376 19.9446 21.199C19.828 21.2634 19.4874 21.4414 19.1928 21.5979C18.8982 21.7544 18.5454 21.9415 18.4104 22.0121C17.1891 22.6626 16.1151 23.2242 16.109 23.218C16.1029 23.2119 16.0722 22.6841 16.0354 22.0428C15.9985 21.4015 15.9617 20.7571 15.9525 20.6098L15.9341 20.3459L13.4671 21.9876L11 23.6323L11.0061 27.8085L11.0153 31.9847L18.8031 31.9939L26.5878 32V26.1668V20.3337L26.4897 20.395C26.1337 20.6098 25.4433 21.0149 25.4341 21.0149C25.428 21.0149 25.4218 19.723 25.4218 18.1458V15.2768H23.8416H22.2613V19.0909ZM20.5736 26.4154V27.2132H18.9167H17.2597V26.4154V25.6176H18.9167H20.5736V26.4154ZM16.0937 26.4614V27.2746H14.4367H12.7797V26.4614V25.6483H14.4367H16.0937V26.4614ZM25.2684 26.4614V27.2746H23.6114H21.9544V26.4614V25.6483H23.6114H25.2684V26.4614ZM20.5736 29.4071V30.2203H18.9167H17.2597V29.4071V28.594H18.9167H20.5736V29.4071ZM16.0937 29.4685V30.2817H14.4367H12.7797V29.4685V28.6554H14.4367H16.0937V29.4685ZM25.2684 29.4685V30.2817H23.6114H21.9544V29.4685V28.6554H23.6114H25.2684V29.4685Z" fill="white"/>
</svg>
