<svg width="28" height="29" viewBox="0 0 28 29" fill="none" xmlns="http://www.w3.org/2000/svg">
<path d="M3.9586 0.0946846C3.66327 0.198605 3.33514 0.483021 2.14291 1.66444C0.824902 2.97165 0.485829 3.48578 0.1741 4.65626C-0.0118437 5.35636 -0.0555951 6.78937 0.0756592 7.69184C0.617083 11.3291 3.30233 15.9344 7.24542 19.9654C11.7026 24.527 16.5481 27.4368 20.5349 27.9619C21.3224 28.0658 22.717 28.0002 23.3514 27.8306C24.5272 27.5188 25.0358 27.1852 26.3429 25.867C27.918 24.2754 28 24.1551 28 23.362C28 22.6127 28.0164 22.6346 25.1999 19.8287C22.3998 17.0392 22.5475 17.1541 21.7107 17.1541C21.0271 17.1596 20.8795 17.2471 19.7911 18.3082C18.845 19.2325 18.5989 19.4075 18.0083 19.5607C17.084 19.8014 16.3457 19.5498 14.6285 18.4121C13.562 17.7011 12.7909 17.0721 11.8667 16.1422C10.9369 15.2179 10.308 14.4467 9.59706 13.3801C8.45952 11.6627 8.20795 10.9243 8.44859 9.99998C8.60172 9.4038 8.77672 9.15767 9.70097 8.21145C10.7237 7.17224 10.833 6.99174 10.8713 6.35728C10.8877 6.02364 10.8713 5.87596 10.7729 5.61343C10.658 5.30166 10.5213 5.15399 8.18061 2.80756C5.35317 -0.0311146 5.39692 0.00170326 4.62581 0.0126419C4.3797 0.0126419 4.08438 0.0509281 3.9586 0.0946846Z" fill="url(#paint0_linear_1055_20661)"/>
<defs>
<linearGradient id="paint0_linear_1055_20661" x1="6.68326" y1="47.1209" x2="39.7197" y2="14.4171" gradientUnits="userSpaceOnUse">
<stop stop-color="#469BFF"/>
<stop offset="1" stop-color="#153059"/>
</linearGradient>
</defs>
</svg>
