<svg width="44" height="44" viewBox="0 0 44 44" fill="none" xmlns="http://www.w3.org/2000/svg">
<path d="M44 22C44 34.1503 34.1503 44 22 44C9.84974 44 0 34.1503 0 22C0 9.84974 9.84974 0 22 0C34.1503 0 44 9.84974 44 22Z" fill="#4CAADF"/>
<path d="M28.6921 12.0308C28.5091 12.0842 10.5016 20.3185 10.3008 20.4412C9.89901 20.6867 9.89901 21.5619 10.3052 21.8127C10.3722 21.8554 11.4703 22.3143 12.7425 22.8267L15.0504 23.7659L20.5053 19.7795C23.5005 17.5862 25.9959 15.7931 26.0494 15.7931C26.1075 15.7878 26.1387 15.8198 26.1387 15.8945C26.1387 15.9639 24.8531 17.4154 22.0899 20.4572C19.8625 22.9067 17.9965 24.9613 17.9474 25.02C17.8671 25.1214 17.8448 25.3295 17.7019 27.6829C17.6171 29.0918 17.5457 30.2871 17.5457 30.3405C17.5457 30.5113 17.7466 30.7034 17.9251 30.7034C18.0769 30.7034 18.1706 30.6073 19.4071 29.1558L20.724 27.6135L21.2686 28.1098C22.8935 29.5934 25.3397 31.792 25.4781 31.8881C25.6655 32.0268 26.0807 32.0375 26.2771 31.9148C26.4199 31.8241 26.6164 31.5893 26.6878 31.4238C26.7146 31.3651 27.469 27.3254 28.3662 22.4531C29.509 16.2414 30 13.493 30 13.2742C30 12.9007 29.8929 12.6018 29.6831 12.3617C29.4242 12.0682 29.0224 11.9348 28.6921 12.0308Z" fill="white"/>
</svg>
