<svg width="21" height="20" viewBox="0 0 21 20" fill="none" xmlns="http://www.w3.org/2000/svg">
<path d="M1.43616 14.8949C1.84449 16.3433 3.09366 16.6083 3.17699 16.6591C5.23283 17.2191 16.7562 17.2208 18.8428 16.6591C20.272 16.2458 20.5345 14.9783 20.5837 14.8949C21.1278 11.9999 21.1637 8.22575 20.5587 4.94075L20.5837 5.10409C20.1753 3.65575 18.9262 3.39075 18.8428 3.33992C16.8145 2.78909 5.26116 2.76825 3.17699 3.33992C1.74783 3.75409 1.48533 5.02075 1.43616 5.10409C0.853661 8.14659 0.824494 11.6374 1.43616 14.8949ZM9.00783 13.0424V6.96492L14.2295 10.0083L9.00783 13.0424Z" fill="#FF0000"/>
<path d="M15 10L9 13.4641V6.5359L15 10Z" fill="white"/>
</svg>
