<svg width="15" height="15" viewBox="0 0 15 15" fill="none" xmlns="http://www.w3.org/2000/svg">
<path d="M10.0953 6H9.21458C9.16249 5.74669 9.07135 5.52415 8.94114 5.33239C8.8133 5.14062 8.65705 4.97964 8.47239 4.84943C8.2901 4.71686 8.08768 4.61742 7.86515 4.55114C7.64261 4.48485 7.4106 4.4517 7.16912 4.4517C6.72878 4.4517 6.32987 4.56297 5.97239 4.78551C5.61728 5.00805 5.33437 5.33594 5.12367 5.76918C4.91534 6.20241 4.81117 6.7339 4.81117 7.36364C4.81117 7.99337 4.91534 8.52486 5.12367 8.9581C5.33437 9.39134 5.61728 9.71922 5.97239 9.94176C6.32987 10.1643 6.72878 10.2756 7.16912 10.2756C7.4106 10.2756 7.64261 10.2424 7.86515 10.1761C8.08768 10.1098 8.2901 10.0116 8.47239 9.88139C8.65705 9.74882 8.8133 9.58665 8.94114 9.39489C9.07135 9.20076 9.16249 8.97822 9.21458 8.72727H10.0953C10.029 9.09896 9.90823 9.43158 9.73304 9.72514C9.55785 10.0187 9.34005 10.2685 9.07963 10.4744C8.81922 10.678 8.52684 10.8331 8.2025 10.9396C7.88053 11.0462 7.53607 11.0994 7.16912 11.0994C6.54886 11.0994 5.99725 10.9479 5.51429 10.6449C5.03134 10.3419 4.65137 9.91098 4.37438 9.35227C4.09739 8.79356 3.9589 8.13068 3.9589 7.36364C3.9589 6.59659 4.09739 5.93371 4.37438 5.375C4.65137 4.81629 5.03134 4.38542 5.51429 4.08239C5.99725 3.77936 6.54886 3.62784 7.16912 3.62784C7.53607 3.62784 7.88053 3.68111 8.2025 3.78764C8.52684 3.89418 8.81922 4.05043 9.07963 4.25639C9.34005 4.45999 9.55785 4.70857 9.73304 5.00213C9.90823 5.29332 10.029 5.62595 10.0953 6Z" fill="white"/>
<circle cx="7.5" cy="7.5" r="7" stroke="white"/>
</svg>
