<svg width="15" height="10" viewBox="0 0 15 10" fill="none" xmlns="http://www.w3.org/2000/svg">
<path d="M0.827181 0.05474C0.648471 0.109436 0.4639 0.218827 0.323275 0.349055C0.203158 0.461051 0.162142 0.61472 0.223666 0.726716C0.247103 0.768389 0.950228 1.31795 1.86429 2.01076C3.80374 3.47192 5.75199 4.95652 6.543 5.57119C6.86234 5.82123 7.17874 6.04783 7.24613 6.07387C7.42191 6.1442 7.60941 6.13638 7.78812 6.05304C7.87015 6.01136 8.2305 5.75091 8.58792 5.47222C9.40531 4.8341 11.0694 3.56829 13.1319 2.01076C14.0459 1.31795 14.7491 0.768389 14.7725 0.726716C14.834 0.61472 14.793 0.461051 14.6729 0.349055C14.5264 0.216223 14.3448 0.109436 14.1573 0.0521355C13.9961 0.00264883 13.8526 0.00264883 7.48636 0.00525331C1.22855 0.00525331 0.973666 0.00785828 0.827181 0.05474Z" fill="white"/>
<path d="M0.161133 1.64946C0.128906 1.66509 0.0791016 1.70155 0.0527344 1.7328C0.00585938 1.7849 0 2.01931 0 5.44951C0 8.79637 0.00292969 9.12194 0.0498047 9.23914C0.178711 9.57774 0.483398 9.84861 0.861328 9.96061C0.996094 10.0023 1.53223 10.0049 7.5 10.0049C13.4678 10.0049 14.0039 10.0023 14.1387 9.96061C14.5166 9.84861 14.8213 9.57774 14.9502 9.23914C14.9971 9.12194 15 8.79637 15 5.44951C15 2.01931 14.9941 1.7849 14.9473 1.7328C14.833 1.60518 14.6543 1.58434 14.4961 1.67811C14.335 1.77708 10.1455 4.95204 8.90625 5.91573C8.31445 6.37673 8.17969 6.4731 8.05957 6.5278C7.76074 6.66063 7.41211 6.68147 7.10449 6.58249C6.85547 6.50175 6.78223 6.45487 6.25488 6.04335C5.12109 5.15259 0.685547 1.7901 0.503906 1.67811C0.395508 1.613 0.257812 1.60258 0.161133 1.64946Z" fill="white"/>
</svg>
