<svg width="12" height="12" viewBox="0 0 12 12" fill="none" xmlns="http://www.w3.org/2000/svg">
<path d="M1.69654 0.0323839C1.56997 0.0769243 1.42935 0.198824 0.918391 0.705175C0.353529 1.26544 0.208212 1.4858 0.0746142 1.98746C-0.00507586 2.28753 -0.0238265 2.90171 0.0324254 3.28851C0.264464 4.84741 1.41528 6.82125 3.10518 8.54894C5.0154 10.504 7.09203 11.7511 8.80068 11.9762C9.13819 12.0207 9.73586 11.9926 10.0077 11.9199C10.5117 11.7863 10.7296 11.6433 11.2898 11.0784C11.9648 10.3962 12 10.3446 12 10.0047C12 9.68354 12.007 9.69292 10.8 8.49034C9.59992 7.29478 9.66321 7.34401 9.3046 7.34401C9.01162 7.34636 8.94834 7.38386 8.48192 7.83864C8.07644 8.23482 7.97096 8.30983 7.71783 8.37547C7.32172 8.47861 7.00531 8.37078 6.26935 7.88318C5.8123 7.57843 5.48182 7.30885 5.08571 6.91033C4.68726 6.51416 4.41772 6.18362 4.11303 5.7265C3.62551 4.99041 3.51769 4.67394 3.62082 4.27777C3.68645 4.02225 3.76145 3.91676 4.15756 3.51121C4.59585 3.06581 4.64273 2.98845 4.65914 2.71652C4.66617 2.57352 4.65914 2.51023 4.61695 2.3977C4.56773 2.26408 4.50913 2.20079 3.50597 1.19512C2.29422 -0.021533 2.31297 -0.00746822 1.98249 -0.00277996C1.87702 -0.00277996 1.75045 0.0136299 1.69654 0.0323839Z" fill="white"/>
</svg>
