<svg width="44" height="44" viewBox="0 0 44 44" fill="none" xmlns="http://www.w3.org/2000/svg">
<circle cx="22" cy="22" r="22" fill="#4CAADF"/>
<path d="M28.6921 12.0418C28.5091 12.0952 10.5016 20.3302 10.3008 20.4529C9.89901 20.6984 9.89901 21.5737 10.3052 21.8245C10.3722 21.8672 11.4703 22.3262 12.7425 22.8386L15.0504 23.7779L20.5053 19.7911C23.5005 17.5976 25.9959 15.8044 26.0494 15.8044C26.1075 15.799 26.1387 15.8311 26.1387 15.9058C26.1387 15.9752 24.8531 17.4268 22.0899 20.4689C19.8625 22.9186 17.9965 24.9734 17.9474 25.0321C17.8671 25.1335 17.8448 25.3416 17.7019 27.6952C17.6171 29.1042 17.5457 30.2997 17.5457 30.3531C17.5457 30.5238 17.7466 30.716 17.9251 30.716C18.0769 30.716 18.1706 30.6199 19.4071 29.1682L20.724 27.6258L21.2686 28.1222C22.8935 29.6059 25.3397 31.8047 25.4781 31.9008C25.6655 32.0395 26.0807 32.0502 26.2771 31.9275C26.4199 31.8367 26.6164 31.6019 26.6878 31.4365C26.7146 31.3778 27.469 27.3376 28.3662 22.465C29.509 16.2527 30 13.5041 30 13.2853C30 12.9117 29.8929 12.6129 29.6831 12.3727C29.4242 12.0792 29.0224 11.9457 28.6921 12.0418Z" fill="white"/>
</svg>
