<svg width="17" height="18" viewBox="0 0 17 18" fill="none" xmlns="http://www.w3.org/2000/svg">
<path d="M8.66616 0.081892C8.50678 0.178182 8.44701 0.320956 8.46362 0.553379C8.4769 0.726037 8.4935 0.762561 8.59975 0.868811L8.71928 0.991663L9.19409 1.01823C10.4923 1.08795 11.4453 1.32038 12.2754 1.7653C13.8392 2.60203 14.9682 3.92684 15.4861 5.52724C15.7053 6.20791 15.8049 6.78233 15.8812 7.76847C15.9344 8.49562 15.9576 8.57199 16.1635 8.70812C16.2598 8.77453 16.3062 8.78449 16.4889 8.77453C16.6848 8.76125 16.708 8.75129 16.8242 8.62512C16.9869 8.45246 17.0102 8.29308 16.9604 7.61573C16.8342 5.8792 16.4291 4.58759 15.6355 3.38231C15.2305 2.76804 14.6461 2.14714 13.9853 1.63249C12.614 0.56334 11.007 0.0154848 9.2605 0.0154848C8.83549 0.0154848 8.75913 0.0254459 8.66616 0.081892Z" fill="#665CAC"/>
<path d="M2.58016 0.327158C2.33446 0.420135 1.55086 0.934832 1.13582 1.28018C-0.0329409 2.25312 -0.192317 2.67816 0.17624 3.89018C0.465109 4.84652 1.16902 6.36405 1.79324 7.3702C2.49051 8.49921 2.86903 9.03383 3.60615 9.94368C5.18995 11.8962 6.87004 13.417 8.8888 14.7254C10.0941 15.509 11.1699 16.0769 12.6142 16.6945C13.3082 16.99 13.4045 17.0166 13.8394 17.0166C14.291 17.0166 14.5998 16.9236 15.048 16.6547C15.649 16.2927 16.4691 15.3961 16.8045 14.7353C16.8709 14.5992 16.8974 14.483 16.924 14.1941C16.9838 13.4868 16.9074 13.3307 16.2101 12.7496C15.3834 12.0622 14.5931 11.5044 13.7033 10.9897C13.1355 10.6609 13.0259 10.6244 12.5578 10.6244C12.1925 10.6244 12.1427 10.631 11.9767 10.7141C11.8771 10.7639 11.7576 10.8369 11.7111 10.8801C11.6048 10.9797 11.2595 11.3749 10.9707 11.7235C10.6419 12.1253 10.3564 12.2283 9.86166 12.1187C9.42669 12.0224 8.58665 11.6472 8.17825 11.3616C7.0593 10.5846 6.17277 9.70791 5.62491 8.83127C5.31944 8.34314 5.04717 7.65577 4.97412 7.18756C4.94756 7.02153 4.95088 6.91859 4.98741 6.74924C5.04385 6.47031 5.10694 6.35077 5.24307 6.25447C5.40577 6.13825 5.99015 5.64679 6.21925 5.42763C6.77043 4.90629 6.7339 4.3916 6.0798 3.33232C5.41241 2.25644 4.06435 0.65922 3.64267 0.446699C3.34384 0.293951 2.82587 0.237501 2.58016 0.327158Z" fill="#665CAC"/>
<path d="M8.8761 2.20074C8.82629 2.23062 8.75325 2.32027 8.71672 2.39996C8.61711 2.6025 8.65032 2.79508 8.80637 2.95114C8.93919 3.08395 9.04212 3.12047 9.46712 3.17028C10.3038 3.26989 11.2003 3.58532 11.7316 3.96384C12.2562 4.33572 12.6181 4.7408 12.9568 5.33514C13.3253 5.9826 13.4449 6.40429 13.5179 7.31406C13.5677 7.97148 13.6043 8.06445 13.8466 8.18066C14.0824 8.29688 14.3248 8.25703 14.4974 8.07109C14.5771 7.98476 14.5804 7.9582 14.5904 7.5166C14.6468 5.09275 13.1361 3.08727 10.7255 2.38668C9.99505 2.17418 9.06868 2.08121 8.8761 2.20074Z" fill="#665CAC"/>
<path d="M9.32609 4.43119C9.08702 4.58061 9.02726 4.94916 9.20324 5.18159C9.28624 5.28784 9.51867 5.39409 9.67472 5.39409C9.84406 5.39409 10.2757 5.50366 10.4716 5.59331C10.9896 5.83237 11.2419 6.25738 11.3581 7.09742C11.4146 7.49586 11.4644 7.59215 11.647 7.68844C11.916 7.82457 12.2247 7.73492 12.3476 7.4859C12.5037 7.18043 12.3443 6.18433 12.0654 5.69956C11.6271 4.93256 10.7738 4.44447 9.75773 4.38139C9.46886 4.36146 9.4257 4.3681 9.32609 4.43119Z" fill="#665CAC"/>
</svg>
